<svg id="visual" viewBox="0 0 960 540" width="960" height="540" xmlns="http://www.w3.org/2000/svg" xmlns:xlink="http://www.w3.org/1999/xlink" version="1.1"><rect x="0" y="0" width="960" height="540" fill="#ffffff"></rect><path d="M0 355L32 355.5C64 356 128 357 192 348C256 339 320 320 384 299.2C448 278.3 512 255.7 576 251.2C640 246.7 704 260.3 768 281C832 301.7 896 329.3 928 343.2L960 357L960 541L928 541C896 541 832 541 768 541C704 541 640 541 576 541C512 541 448 541 384 541C320 541 256 541 192 541C128 541 64 541 32 541L0 541Z" fill="#dfea2e" stroke-linecap="round" stroke-linejoin="miter"></path></svg>